<svg width="24" height="24" viewBox="0 0 24 24" fill="none" xmlns="http://www.w3.org/2000/svg">
<path d="M1.66663 5.66667H22.3333V18.3333H1.66663V5.66667Z" fill="#5C9E31"/>
<path d="M19.6743 12.0076L11.9554 16.8843L4.32568 12.097L12.0447 7.22029L19.6743 12.0076Z" fill="#FCEA2B"/>
<path d="M12 15C13.6569 15 15 13.6569 15 12C15 10.3431 13.6569 9 12 9C10.3431 9 9 10.3431 9 12C9 13.6569 10.3431 15 12 15Z" fill="#1E50A0"/>
<path d="M14.7197 13.2607C14.8296 13.0208 14.9076 12.7675 14.9517 12.5073C14.7038 11.9891 14.3424 11.5334 13.8942 11.1741C13.4461 10.8147 12.9227 10.5609 12.363 10.4315C11.8034 10.3021 11.2217 10.3005 10.6613 10.4267C10.1009 10.553 9.57616 10.8038 9.126 11.1607C9.0615 11.3791 9.02213 11.6043 9.00867 11.8317C9.45103 11.4688 9.97219 11.2145 10.5304 11.0891C11.0887 10.9637 11.6686 10.9708 12.2236 11.1097C12.7787 11.2486 13.2935 11.5154 13.7269 11.8889C14.1603 12.2624 14.5003 12.7322 14.7197 13.2607Z" fill="white"/>
<path d="M1.66663 5.66667H22.3333V18.3333H1.66663V5.66667Z" stroke="#121212" stroke-width="0.555556" stroke-linecap="round" stroke-linejoin="round"/>
</svg>
