<svg width="32" height="32" viewBox="0 0 32 32" fill="none" xmlns="http://www.w3.org/2000/svg">
<circle cx="16" cy="16" r="15.5" stroke="#E57200"/>
<path fill-rule="evenodd" clip-rule="evenodd" d="M8 16.0447C8 20.022 10.8887 23.3293 14.6667 24V18.222H12.6667V16H14.6667V14.222C14.6667 12.222 15.9553 11.1113 17.778 11.1113C18.3553 11.1113 18.978 11.2 19.5553 11.2887V13.3333H18.5333C17.5553 13.3333 17.3333 13.822 17.3333 14.4447V16H19.4667L19.1113 18.222H17.3333V24C21.1113 23.3293 24 20.0227 24 16.0447C24 11.62 20.4 8 16 8C11.6 8 8 11.62 8 16.0447Z" fill="#E57200"/>
</svg>
