<svg width="32" height="32" viewBox="0 0 32 32" fill="none" xmlns="http://www.w3.org/2000/svg">
<circle cx="16" cy="16" r="15.5" stroke="#E57200"/>
<path d="M16.7402 8.80093C17.2656 8.79892 17.791 8.8042 18.3162 8.81677L18.4559 8.82181C18.6172 8.82757 18.7763 8.83477 18.9685 8.84341C19.7345 8.87941 20.2572 9.00037 20.7159 9.1782C21.191 9.36108 21.5913 9.60875 21.9916 10.0091C22.3576 10.3688 22.6409 10.8039 22.8217 11.2841C22.9996 11.7428 23.1205 12.2662 23.1565 13.0322C23.1652 13.2237 23.1724 13.3836 23.1781 13.5449L23.1824 13.6845C23.1952 14.2095 23.2008 14.7347 23.199 15.2598L23.1997 15.7969V16.7401C23.2015 17.2655 23.196 17.7909 23.1832 18.3161L23.1788 18.4558C23.1731 18.6171 23.1659 18.7762 23.1572 18.9684C23.1212 19.7345 22.9989 20.2572 22.8217 20.7158C22.6415 21.1966 22.3582 21.632 21.9916 21.9916C21.6316 22.3576 21.1963 22.6408 20.7159 22.8217C20.2572 22.9996 19.7345 23.1205 18.9685 23.1565C18.7763 23.1652 18.6172 23.1724 18.4559 23.1781L18.3162 23.1824C17.791 23.1952 17.2656 23.2008 16.7402 23.199L16.2031 23.1997H15.2607C14.7353 23.2015 14.2099 23.196 13.6847 23.1832L13.545 23.1788C13.3741 23.1727 13.2032 23.1654 13.0324 23.1572C12.2664 23.1212 11.7437 22.9989 11.2843 22.8217C10.8039 22.6413 10.3687 22.3579 10.0093 21.9916C9.64285 21.6318 9.35932 21.1964 9.17844 20.7158C9.00061 20.2572 8.87966 19.7345 8.84366 18.9684C8.83564 18.7976 8.82844 18.6267 8.82206 18.4558L8.81846 18.3161C8.80519 17.7909 8.79919 17.2655 8.80046 16.7401V15.2598C8.79845 14.7347 8.80374 14.2095 8.8163 13.6845L8.82134 13.5449C8.8271 13.3836 8.8343 13.2237 8.84294 13.0322C8.87894 12.2655 8.99989 11.7435 9.17772 11.2841C9.3587 10.8036 9.6428 10.3686 10.01 10.0098C10.3692 9.64313 10.8041 9.35933 11.2843 9.1782C11.7437 9.00037 12.2656 8.87941 13.0324 8.84341L13.545 8.82181L13.6847 8.81821C14.2097 8.80495 14.7348 8.79895 15.26 8.80021L16.7402 8.80093ZM16.0001 12.4008C15.5231 12.3941 15.0496 12.4822 14.6069 12.6601C14.1643 12.8379 13.7615 13.102 13.4218 13.4369C13.0821 13.7718 12.8124 14.1709 12.6283 14.611C12.4442 15.051 12.3494 15.5233 12.3494 16.0003C12.3494 16.4774 12.4442 16.9496 12.6283 17.3897C12.8124 17.8298 13.0821 18.2288 13.4218 18.5638C13.7615 18.8987 14.1643 19.1627 14.6069 19.3406C15.0496 19.5185 15.5231 19.6066 16.0001 19.5998C16.9548 19.5998 17.8705 19.2206 18.5455 18.5455C19.2206 17.8704 19.5999 16.9547 19.5999 16C19.5999 15.0452 19.2206 14.1296 18.5455 13.4545C17.8705 12.7794 16.9548 12.4008 16.0001 12.4008ZM16.0001 13.8408C16.287 13.8355 16.5721 13.8874 16.8387 13.9935C17.1053 14.0997 17.3481 14.2579 17.5529 14.4589C17.7577 14.6599 17.9204 14.8997 18.0314 15.1643C18.1425 15.4289 18.1997 15.713 18.1998 16C18.1998 16.2869 18.1427 16.571 18.0317 16.8357C17.9207 17.1003 17.7581 17.3402 17.5534 17.5412C17.3487 17.7423 17.1059 17.9006 16.8394 18.0068C16.5728 18.1131 16.2877 18.1651 16.0008 18.1599C15.428 18.1599 14.8786 17.9323 14.4735 17.5273C14.0685 17.1222 13.8409 16.5728 13.8409 16C13.8409 15.4271 14.0685 14.8777 14.4735 14.4727C14.8786 14.0676 15.428 13.84 16.0008 13.84L16.0001 13.8408ZM19.7799 11.3208C19.5476 11.3301 19.328 11.429 19.1669 11.5966C19.0059 11.7642 18.9159 11.9876 18.9159 12.2201C18.9159 12.4526 19.0059 12.676 19.1669 12.8436C19.328 13.0112 19.5476 13.1101 19.7799 13.1193C20.0186 13.1193 20.2475 13.0245 20.4163 12.8558C20.585 12.687 20.6799 12.4581 20.6799 12.2194C20.6799 11.9807 20.585 11.7518 20.4163 11.583C20.2475 11.4142 20.0186 11.3194 19.7799 11.3194V11.3208Z" fill="#E57200"/>
</svg>
