<svg width="492" height="75" viewBox="0 0 492 75" fill="none" xmlns="http://www.w3.org/2000/svg">
<path d="M18.096 68.9294C15.6 68.9294 13.328 68.4494 11.28 67.4894C9.264 66.5294 7.52 65.2334 6.048 63.6014C4.608 61.9374 3.488 60.0814 2.688 58.0334C1.888 55.9534 1.488 53.8254 1.488 51.6494C1.488 49.3774 1.904 47.2174 2.736 45.1694C3.6 43.0894 4.768 41.2494 6.24 39.6494C7.744 38.0174 9.504 36.7374 11.52 35.8094C13.568 34.8494 15.808 34.3694 18.24 34.3694C20.704 34.3694 22.944 34.8654 24.96 35.8574C27.008 36.8494 28.752 38.1774 30.192 39.8414C31.632 41.5054 32.752 43.3614 33.552 45.4094C34.352 47.4574 34.752 49.5694 34.752 51.7454C34.752 53.9854 34.336 56.1454 33.504 58.2254C32.672 60.2734 31.504 62.1134 30 63.7454C28.528 65.3454 26.768 66.6094 24.72 67.5374C22.704 68.4654 20.496 68.9294 18.096 68.9294ZM8.208 51.6494C8.208 53.1214 8.432 54.5454 8.88 55.9214C9.328 57.2974 9.968 58.5294 10.8 59.6174C11.664 60.6734 12.704 61.5214 13.92 62.1614C15.168 62.7694 16.576 63.0734 18.144 63.0734C19.744 63.0734 21.168 62.7534 22.416 62.1134C23.664 61.4414 24.704 60.5614 25.536 59.4734C26.368 58.3534 26.992 57.1214 27.408 55.7774C27.856 54.4014 28.08 53.0254 28.08 51.6494C28.08 50.1774 27.84 48.7694 27.36 47.4254C26.912 46.0494 26.256 44.8334 25.392 43.7774C24.56 42.6894 23.52 41.8414 22.272 41.2334C21.056 40.5934 19.68 40.2734 18.144 40.2734C16.512 40.2734 15.072 40.6094 13.824 41.2814C12.608 41.9214 11.584 42.7854 10.752 43.8734C9.92 44.9614 9.28 46.1774 8.832 47.5214C8.416 48.8654 8.208 50.2414 8.208 51.6494ZM56.1532 68.6894V34.6094H71.2253C72.7933 34.6094 74.2333 34.9294 75.5453 35.5694C76.8893 36.2094 78.0413 37.0734 79.0013 38.1614C79.9933 39.2494 80.7453 40.4654 81.2572 41.8094C81.8013 43.1534 82.0733 44.5294 82.0733 45.9374C82.0733 47.3774 81.8173 48.7694 81.3053 50.1134C80.8253 51.4254 80.1213 52.5774 79.1933 53.5694C78.2653 54.5614 77.1773 55.3294 75.9293 55.8734L83.7052 68.6894H76.4093L69.4013 57.2654H62.7773V68.6894H56.1532ZM62.7773 51.4574H71.0813C71.9133 51.4574 72.6493 51.2174 73.2893 50.7374C73.9293 50.2254 74.4413 49.5534 74.8253 48.7214C75.2093 47.8894 75.4013 46.9614 75.4013 45.9374C75.4013 44.8494 75.1773 43.9054 74.7293 43.1054C74.2813 42.2734 73.7053 41.6174 73.0013 41.1374C72.3293 40.6574 71.5933 40.4174 70.7933 40.4174H62.7773V51.4574ZM129.508 40.4174H118.612V68.6894H112.036V40.4174H101.14V34.6094H129.508V40.4174ZM178.715 34.6094V68.6894H172.139V54.1454H156.683V68.6894H150.059V34.6094H156.683V48.3854H172.139V34.6094H178.715ZM216.688 68.9294C214.192 68.9294 211.92 68.4494 209.872 67.4894C207.856 66.5294 206.112 65.2334 204.64 63.6014C203.2 61.9374 202.08 60.0814 201.28 58.0334C200.48 55.9534 200.08 53.8254 200.08 51.6494C200.08 49.3774 200.496 47.2174 201.328 45.1694C202.192 43.0894 203.36 41.2494 204.832 39.6494C206.336 38.0174 208.096 36.7374 210.112 35.8094C212.16 34.8494 214.4 34.3694 216.832 34.3694C219.296 34.3694 221.536 34.8654 223.553 35.8574C225.601 36.8494 227.345 38.1774 228.784 39.8414C230.224 41.5054 231.345 43.3614 232.145 45.4094C232.945 47.4574 233.345 49.5694 233.345 51.7454C233.345 53.9854 232.929 56.1454 232.096 58.2254C231.265 60.2734 230.097 62.1134 228.592 63.7454C227.121 65.3454 225.361 66.6094 223.313 67.5374C221.297 68.4654 219.088 68.9294 216.688 68.9294ZM206.8 51.6494C206.8 53.1214 207.024 54.5454 207.472 55.9214C207.92 57.2974 208.56 58.5294 209.392 59.6174C210.256 60.6734 211.296 61.5214 212.512 62.1614C213.76 62.7694 215.168 63.0734 216.736 63.0734C218.337 63.0734 219.76 62.7534 221.008 62.1134C222.257 61.4414 223.297 60.5614 224.128 59.4734C224.96 58.3534 225.585 57.1214 226.001 55.7774C226.449 54.4014 226.673 53.0254 226.673 51.6494C226.673 50.1774 226.433 48.7694 225.953 47.4254C225.505 46.0494 224.849 44.8334 223.985 43.7774C223.153 42.6894 222.112 41.8414 220.864 41.2334C219.648 40.5934 218.273 40.2734 216.736 40.2734C215.104 40.2734 213.664 40.6094 212.416 41.2814C211.2 41.9214 210.176 42.7854 209.344 43.8734C208.512 44.9614 207.872 46.1774 207.424 47.5214C207.008 48.8654 206.8 50.2414 206.8 51.6494ZM254.746 68.6894V34.6094H269.194C270.762 34.6094 272.202 34.9294 273.514 35.5694C274.826 36.2094 275.962 37.0734 276.922 38.1614C277.914 39.2494 278.682 40.4654 279.226 41.8094C279.77 43.1534 280.042 44.5294 280.042 45.9374C280.042 47.8574 279.594 49.6814 278.698 51.4094C277.802 53.1374 276.57 54.5454 275.002 55.6334C273.434 56.7214 271.578 57.2654 269.434 57.2654H261.37V68.6894H254.746ZM261.37 51.4574H269.05C269.85 51.4574 270.57 51.2334 271.21 50.7854C271.85 50.3374 272.362 49.6974 272.746 48.8654C273.13 48.0014 273.322 47.0254 273.322 45.9374C273.322 44.7534 273.098 43.7454 272.65 42.9134C272.234 42.0814 271.674 41.4574 270.97 41.0414C270.298 40.6254 269.562 40.4174 268.762 40.4174H261.37V51.4574ZM324.636 62.8814V68.6894H300.972V34.6094H324.204V40.4174H307.596V48.6254H321.948V54.0014H307.596V62.8814H324.636ZM346.12 68.6894V34.6094H358.504C362.216 34.6094 365.32 35.3774 367.816 36.9134C370.312 38.4174 372.184 40.4654 373.432 43.0574C374.68 45.6174 375.304 48.4654 375.304 51.6014C375.304 55.0574 374.616 58.0654 373.24 60.6254C371.864 63.1854 369.912 65.1694 367.384 66.5774C364.888 67.9854 361.928 68.6894 358.504 68.6894H346.12ZM368.632 51.6014C368.632 49.3934 368.232 47.4574 367.432 45.7934C366.632 44.0974 365.48 42.7854 363.976 41.8574C362.472 40.8974 360.648 40.4174 358.504 40.4174H352.744V62.8814H358.504C360.68 62.8814 362.52 62.4014 364.024 61.4414C365.528 60.4494 366.664 59.1054 367.432 57.4094C368.232 55.6814 368.632 53.7454 368.632 51.6014ZM396.799 68.6894V34.6094H403.423V68.6894H396.799ZM424.79 51.4094C424.79 49.3294 425.158 47.2974 425.894 45.3134C426.662 43.2974 427.766 41.4734 429.206 39.8414C430.646 38.1774 432.406 36.8654 434.486 35.9054C436.566 34.9134 438.934 34.4174 441.59 34.4174C444.726 34.4174 447.43 35.1054 449.702 36.4814C452.006 37.8574 453.718 39.6494 454.838 41.8574L449.75 45.3614C449.174 44.0814 448.422 43.0734 447.494 42.3374C446.566 41.5694 445.574 41.0414 444.518 40.7534C443.462 40.4334 442.422 40.2734 441.398 40.2734C439.734 40.2734 438.278 40.6094 437.03 41.2814C435.814 41.9534 434.79 42.8334 433.958 43.9214C433.126 45.0094 432.502 46.2254 432.086 47.5694C431.702 48.9134 431.51 50.2574 431.51 51.6014C431.51 53.1054 431.75 54.5614 432.23 55.9694C432.71 57.3454 433.382 58.5774 434.246 59.6654C435.142 60.7214 436.198 61.5694 437.414 62.2094C438.662 62.8174 440.022 63.1214 441.494 63.1214C442.55 63.1214 443.622 62.9454 444.71 62.5934C445.798 62.2414 446.806 61.6814 447.734 60.9134C448.662 60.1454 449.382 59.1534 449.894 57.9374L455.318 61.0574C454.646 62.7534 453.542 64.1934 452.006 65.3774C450.502 66.5614 448.806 67.4574 446.918 68.0654C445.03 68.6734 443.158 68.9774 441.302 68.9774C438.87 68.9774 436.646 68.4814 434.63 67.4894C432.614 66.4654 430.87 65.1214 429.398 63.4574C427.958 61.7614 426.822 59.8734 425.99 57.7934C425.19 55.6814 424.79 53.5534 424.79 51.4094Z" fill="#80276C"/>
<path d="M393.949 9.23129C457.285 7.50062 501.024 11.0445 477.397 26.2062C481.729 14.9064 442.8 10.5461 393.949 9.23129Z" fill="#80276C"/>
<path d="M416.53 5.93957C470.417 3.3084 505.636 5.86008 486.687 17.987C489.128 7.87206 456.817 6.9685 416.53 5.93957Z" fill="#80276C"/>
<path d="M360 13.8367C445.273 9.72563 494.123 19.3896 467.356 35.4166C470.611 21.1967 420.789 16.5138 360 13.8367Z" fill="#80276C"/>
<path d="M2.04 21V3.96H4.2V19.08H13.704V21H2.04ZM23.2556 21V3.96H25.4156V21H23.2556ZM38.85 7.944V21H36.69V3.96H38.514L48.93 17.28V3.984H51.09V21H49.122L38.85 7.944ZM76.0627 3.96V21H73.9027V13.248H64.5187V21H62.3587V3.96H64.5187V11.328H73.9027V3.96H76.0627ZM92.5318 3.96H94.3558L101.316 21H99.0118L96.9958 16.008H89.8438L87.8518 21H85.5478L92.5318 3.96ZM96.5158 14.328L93.4438 6.456L90.2758 14.328H96.5158Z" fill="#707372"/>
</svg>
