<svg width="33" height="33" viewBox="0 0 33 33" fill="none" xmlns="http://www.w3.org/2000/svg">
<path d="M16.0613 0.561279C24.6218 0.561279 31.5613 7.50087 31.5613 16.0613C31.5613 24.6217 24.6218 31.5613 16.0613 31.5613C7.50093 31.5613 0.56134 24.6217 0.56134 16.0613C0.56134 7.50087 7.50093 0.561279 16.0613 0.561279Z" stroke="#E57200"/>
<path d="M22.4613 9.66113H9.66128C8.78128 9.66113 8.06928 10.3811 8.06928 11.2611L8.06128 20.8611C8.06128 21.7411 8.78128 22.4611 9.66128 22.4611H22.4613C23.3413 22.4611 24.0613 21.7411 24.0613 20.8611V11.2611C24.0613 10.3811 23.3413 9.66113 22.4613 9.66113ZM22.4613 12.8611L16.0613 16.8611L9.66128 12.8611V11.2611L16.0613 15.2611L22.4613 11.2611V12.8611Z" fill="#E57200"/>
</svg>
