<svg width="32" height="33" viewBox="0 0 32 33" fill="none" xmlns="http://www.w3.org/2000/svg">
<circle cx="16" cy="16.0613" r="15.5" stroke="#E57200"/>
<path d="M23.8404 21.6838L19.766 17.6095C19.6785 17.523 19.5647 17.4682 19.4426 17.4537C19.3204 17.4392 19.1969 17.4658 19.0917 17.5295C18.3567 17.9741 17.8084 18.6707 17.5488 19.4895C17.4174 19.9009 16.9373 20.0895 16.5659 19.8667L16.5602 19.8609L16.5545 19.8552C14.7698 18.7848 13.2762 17.2913 12.2058 15.5066C12.2058 15.5008 12.2001 15.4951 12.2001 15.4951C11.9715 15.1237 12.1601 14.6437 12.5715 14.5122C13.3921 14.2559 14.0897 13.7067 14.5316 12.9694C14.663 12.7522 14.6287 12.4779 14.4516 12.2951L10.3772 8.22068C10.2897 8.1342 10.1759 8.07938 10.0538 8.06488C9.93165 8.05039 9.80816 8.07707 9.7029 8.14068C9.20467 8.43959 8.78867 8.85779 8.49238 9.35758C8.1961 9.85737 8.02885 10.423 8.00571 11.0036V11.0093C8 11.0665 8 11.1236 8 11.1807C8 11.2607 8.00571 11.335 8.01143 11.4093C8.07943 13.6721 8.72674 15.8797 9.89147 17.8209C10.9601 19.6038 12.4572 21.101 14.2401 22.1696L14.2459 22.1753C16.2116 23.3582 18.4517 24.0039 20.7431 24.0553C20.7889 24.0553 20.8346 24.061 20.8803 24.061H21.2003V24.0496C21.7558 24.0025 22.2924 23.8248 22.7661 23.5308C23.2398 23.2369 23.6373 22.835 23.9261 22.3581C24.0518 22.141 24.0175 21.861 23.8404 21.6838Z" fill="#E57200"/>
</svg>
