<svg width="32" height="32" viewBox="0 0 32 32" fill="none" xmlns="http://www.w3.org/2000/svg">
<circle cx="16" cy="16" r="15.5" stroke="#E57200"/>
<path d="M14.4 18.1921L18.552 15.8544L14.4 13.5168V18.1921ZM23.648 12.0908C23.752 12.457 23.824 12.948 23.872 13.5713C23.928 14.1947 23.952 14.7324 23.952 15.1999L24 15.8544C24 17.5609 23.872 18.8155 23.648 19.6181C23.448 20.3194 22.984 20.7713 22.264 20.9661C21.888 21.0674 21.2 21.1376 20.144 21.1843C19.104 21.2389 18.152 21.2622 17.272 21.2622L16 21.309C12.648 21.309 10.56 21.1843 9.736 20.9661C9.016 20.7713 8.552 20.3194 8.352 19.6181C8.248 19.2519 8.176 18.7609 8.128 18.1376C8.072 17.5142 8.048 16.9765 8.048 16.509L8 15.8544C8 14.148 8.128 12.8934 8.352 12.0908C8.552 11.3895 9.016 10.9376 9.736 10.7428C10.112 10.6415 10.8 10.5713 11.856 10.5246C12.896 10.47 13.848 10.4467 14.728 10.4467L16 10.3999C19.352 10.3999 21.44 10.5246 22.264 10.7428C22.984 10.9376 23.448 11.3895 23.648 12.0908Z" fill="#E57200"/>
</svg>
